<svg height="440" width="855" xmlns="http://www.w3.org/2000/svg"><g fill="none" stroke="#F0F0F0" stroke-width="50"><circle cx="530" cy="220.00002" r="75" stroke-linecap="round"/><g transform="translate(385 620)"><path d="m275-400a75 75 0 0 1 75-75 75 75 0 0 1 75 75 75 75 0 0 1 -75 75" stroke-linecap="square"/><path d="m305-325h45"/><path d="m275-400v200.00001"/></g><g transform="matrix(-1 0 0 -1 470 -180)"><path d="m275-400a75 75 0 0 1 75-75 75 75 0 0 1 75 75 75 75 0 0 1 -75 75" stroke-linecap="square"/><path d="m305-325h45"/><path d="m275-400v200"/></g><circle cx="325" cy="220.00002" r="75" stroke-linecap="round"/></g></svg>
